<?xml version="1.0" encoding="UTF-8" standalone="no"?>
<svg
   version="1.0"
   width="1280pt"
   height="1280pt"
   viewBox="0 0 1280 1280"
   preserveAspectRatio="xMidYMid"
   id="svg1"
   sodipodi:docname="glass.svg"
   inkscape:version="1.3.1 (9b9bdc1480, 2023-11-25, custom)"
   xmlns:inkscape="http://www.inkscape.org/namespaces/inkscape"
   xmlns:sodipodi="http://sodipodi.sourceforge.net/DTD/sodipodi-0.dtd"
   xmlns="http://www.w3.org/2000/svg"
   xmlns:svg="http://www.w3.org/2000/svg">
  <defs
     id="defs1" />
  <sodipodi:namedview
     id="namedview1"
     pagecolor="#ffffff"
     bordercolor="#000000"
     borderopacity="0.25"
     inkscape:showpageshadow="2"
     inkscape:pageopacity="0.0"
     inkscape:pagecheckerboard="0"
     inkscape:deskcolor="#d1d1d1"
     inkscape:document-units="pt"
     showgrid="false"
     inkscape:zoom="0.51269531"
     inkscape:cx="930.37714"
     inkscape:cy="834.80381"
     inkscape:window-width="1920"
     inkscape:window-height="1200"
     inkscape:window-x="0"
     inkscape:window-y="0"
     inkscape:window-maximized="1"
     inkscape:current-layer="svg1" />
  <metadata
     id="metadata1">
Created by potrace 1.15, written by Peter Selinger 2001-2017
</metadata>
  <g
     transform="matrix(0.1,0,0,-0.1,0,960.16863)"
     fill="#000000"
     stroke="none"
     id="g1">
    <path
       d="M 2335,5419 C 1975,5396 1538,5324 885,5180 786,5158 554,5111 370,5074 186,5037 30,5006 24,5004 9,5001 -5,4665 3,4535 16,4335 48,4262 192,4097 437,3816 477,3749 534,3515 662,2994 865,2403 1079,1931 c 133,-295 311,-475 636,-642 554,-286 1278,-380 2055,-269 475,69 861,268 1205,621 245,252 440,538 650,954 107,211 139,297 220,600 66,245 100,346 161,470 86,179 138,216 309,223 55,2 161,-1 235,-6 161,-11 191,-23 271,-109 105,-114 171,-251 259,-543 217,-719 484,-1209 851,-1565 174,-168 310,-265 518,-369 406,-204 854,-306 1346,-306 910,0 1659,377 2041,1027 136,230 208,434 354,1003 171,666 214,794 320,950 45,66 126,143 197,188 88,56 88,55 86,422 0,85 0,189 1,230 2,138 -44,177 -257,216 -171,32 -290,60 -572,138 -327,91 -379,103 -654,146 -683,108 -863,125 -1230,117 -488,-11 -826,-59 -1826,-257 -675,-134 -955,-181 -1278,-215 -248,-26 -554,-36 -773,-25 -392,19 -583,48 -1179,180 -550,122 -661,143 -1031,195 -786,109 -1239,140 -1659,114 z"
       id="path1" />
  </g>
</svg>
